#Line007.obj

v -1.046985 -0.1917441 0.7895998
v -0.429142 -0.3408786 0.7895999
v -1.046985 -0.3408786 0.7895999
v -0.152178 3.051758E-07 0.7895999
v -0.4930567 0.6014313 0.7895999
v 0.3968864 3.051758E-07 0.7895999
v 0.4012749 0.6010263 0.7895999
v -0.429142 -0.3408786 0
v -1.046985 -0.1917441 0
v -1.046985 -0.3408786 0
v -0.152178 3.051758E-07 0
v -0.4930567 0.6014313 0
v 0.3968864 3.051758E-07 0
v 0.4012749 0.6010263 0
v 0.4012749 0.6010263 0.7895999
v 0.3968864 3.051758E-07 0
v 0.3968864 3.051758E-07 0.7895999
v 0.4012749 0.6010263 0
v -0.4930567 0.6014313 0.7895999
v 0.4012749 0.6010263 0
v 0.4012749 0.6010263 0.7895999
v -0.4930567 0.6014313 0
v 0.3968864 3.051758E-07 0.7895999
v -0.152178 3.051758E-07 0
v -0.152178 3.051758E-07 0.7895999
v 0.3968864 3.051758E-07 0
v -1.046985 -0.1917441 0.7895998
v -0.4930567 0.6014313 0
v -0.4930567 0.6014313 0.7895999
v -1.046985 -0.1917441 0
v -1.046985 -0.3408786 0.7895999
v -1.046985 -0.3408786 0
v -0.152178 3.051758E-07 0.7895999
v -0.429142 -0.3408786 0
v -0.429142 -0.3408786 0.7895999
v -0.152178 3.051758E-07 0
v -0.429142 -0.3408786 0.7895999
v -1.046985 -0.3408786 0
v -1.046985 -0.3408786 0.7895999
v -0.429142 -0.3408786 0
v -0.03923252 0.3005429 0.7868218
v -0.02987872 0.3535909 -0.04933182
v -0.02987872 0.3535909 0.7868218
v -0.03923252 0.3005429 -0.04933182
v -0.002945537 0.4002405 -0.04933182
v -0.002945537 0.4002406 0.7868218
v 0.0383185 0.4348652 -0.04933182
v 0.0383185 0.4348652 0.7868218
v 0.08893634 0.4532886 -0.04933182
v 0.08893634 0.4532886 0.7868218
v 0.1428027 0.4532886 -0.04933182
v 0.1428027 0.4532886 0.7868218
v -0.02987868 0.2474948 0.7868218
v -0.02987868 0.2474947 -0.04933182
v -0.002945471 0.2008451 0.7868218
v -0.002945471 0.2008451 -0.04933182
v 0.03831857 0.1662205 0.7868218
v 0.03831857 0.1662205 -0.04933182
v 0.0889364 0.1477972 0.7868218
v 0.0889364 0.1477972 -0.04933182
v 0.1428028 0.1477972 0.7868218
v 0.1428028 0.1477972 -0.04933182
v 0.1934206 0.1662206 0.7868218
v 0.1934206 0.1662206 -0.04933182
v 0.2346846 0.2008453 0.7868218
v 0.2346846 0.2008452 -0.04933182
v 0.2616178 0.2474949 0.7868218
v 0.2616178 0.2474949 -0.04933182
v 0.2709716 0.3005429 0.7868218
v 0.2709716 0.3005429 -0.04933182
v 0.2616178 0.3535909 0.7868218
v 0.2616178 0.3535909 -0.04933182
v 0.2346846 0.4002406 0.7868218
v 0.2346846 0.4002405 -0.04933182
v 0.1934206 0.4348652 0.7868218
v 0.1934206 0.4348652 -0.04933182
v 0.1428027 0.4532886 0.7868218
v 0.1428027 0.4532886 -0.04933182
v 0.1778335 0.4078676 -0.067835
v 0.1373894 0.4225881 -0.067835
v 0.2108039 0.3802022 -0.067835
v 0.2323237 0.3429288 -0.067835
v 0.2397975 0.3005429 -0.067835
v 0.2323237 0.258157 -0.067835
v 0.2108039 0.2208835 -0.067835
v 0.1778335 0.1932182 -0.067835
v 0.1373894 0.1784977 -0.067835
v 0.09434972 0.1784977 -0.067835
v 0.0539056 0.1932181 -0.067835
v 0.02093524 0.2208835 -0.067835
v -0.0005846405 0.258157 -0.067835
v -0.008058443 0.3005429 -0.067835
v -0.0005846786 0.3429288 -0.067835
v 0.02093519 0.3802022 -0.067835
v 0.05390554 0.4078676 -0.067835
v 0.09434967 0.4225881 -0.067835
v 0.1373894 0.4225881 -0.067835
v 0.0889364 0.1477972 0.7868218
v 0.1934206 0.1662206 0.7868218
v 0.1428028 0.1477972 0.7868218
v 0.2616178 0.2474949 0.7868218
v 0.2346846 0.2008453 0.7868218
v -0.002945537 0.4002406 0.7868218
v 0.1934206 0.4348652 0.7868218
v 0.2616178 0.3535909 0.7868218
v 0.2709716 0.3005429 0.7868218
v 0.2346846 0.4002406 0.7868218
v 0.08893634 0.4532886 0.7868218
v 0.1428027 0.4532886 0.7868218
v 0.0383185 0.4348652 0.7868218
v -0.03923252 0.3005429 0.7868218
v -0.02987872 0.3535909 0.7868218
v -0.002945471 0.2008451 0.7868218
v -0.02987868 0.2474948 0.7868218
v 0.03831857 0.1662205 0.7868218
v 0.05390554 0.4078676 -0.067835
v 0.1373894 0.4225881 -0.067835
v 0.09434967 0.4225881 -0.067835
v 0.2108039 0.3802022 -0.067835
v 0.1778335 0.4078676 -0.067835
v 0.0539056 0.1932181 -0.067835
v 0.2108039 0.2208835 -0.067835
v 0.2397975 0.3005429 -0.067835
v 0.2323237 0.3429288 -0.067835
v 0.2323237 0.258157 -0.067835
v 0.1373894 0.1784977 -0.067835
v 0.1778335 0.1932182 -0.067835
v 0.09434972 0.1784977 -0.067835
v -0.0005846405 0.258157 -0.067835
v 0.02093524 0.2208835 -0.067835
v -0.0005846786 0.3429288 -0.067835
v -0.008058443 0.3005429 -0.067835
v 0.02093519 0.3802022 -0.067835

vn 0 0 1
vn 0 0 1
vn 0 5.11578E-07 1
vn 0 0 1
vn 0 0 1
vn 0 0 1
vn 0 0 1
vn 0 0 -1
vn 0 0 -1
vn 0 0 -1
vn 0 0 -1
vn 0 0 -1
vn 0 0 -1
vn 0 0 -1
vn 0.9999734 -0.007301366 0
vn 0.9999734 -0.007301366 0
vn 0.9999734 -0.007301366 0
vn 0.9999734 -0.007301366 0
vn 0.0004528166 0.9999999 0
vn 0.0004528166 0.9999999 0
vn 0.0004528166 0.9999999 0
vn 0.0004528166 0.9999999 0
vn 0 -1 0
vn 0 -1 0
vn 0 -1 0
vn 0 -1 0
vn -0.9539025 0.3001165 0
vn -0.8198602 0.5725638 0
vn -0.8198602 0.5725638 0
vn -0.9539025 0.3001165 0
vn -1 0 0
vn -1 0 0
vn 0.7761141 -0.6305925 0
vn 0.7761141 -0.6305925 0
vn 0.776114 -0.6305925 0
vn 0.776114 -0.6305925 0
vn 0 -1 0
vn 0 -1 0
vn 0 -1 0
vn 0 -1 0
vn -1 0 0
vn -0.8281235 0.3014124 -0.4726121
vn -0.9396927 0.34202 0
vn -0.8812706 0 -0.472612
vn -0.6750923 0.5664698 -0.4726121
vn -0.7660446 0.6427875 0
vn -0.4406352 0.7632028 -0.4726121
vn -0.5 0.8660254 0
vn -0.153031 0.8678821 -0.4726121
vn -0.1736482 0.9848077 0
vn 0.1530311 0.8678821 -0.4726121
vn 0.1736482 0.9848077 0
vn -0.9396925 -0.3420206 0
vn -0.8281232 -0.3014127 -0.4726122
vn -0.766044 -0.6427882 0
vn -0.6750922 -0.5664701 -0.4726121
vn -0.4999995 -0.8660257 0
vn -0.4406348 -0.7632029 -0.4726122
vn -0.1736477 -0.9848078 0
vn -0.1530305 -0.8678821 -0.4726123
vn 0.1736487 -0.9848077 0
vn 0.1530314 -0.8678821 -0.472612
vn 0.5000003 -0.8660252 0
vn 0.4406355 -0.7632024 -0.4726123
vn 0.7660447 -0.6427872 0
vn 0.6750926 -0.5664696 -0.4726121
vn 0.9396927 -0.34202 0
vn 0.8281236 -0.3014121 -0.472612
vn 1 0 0
vn 0.8812705 0 -0.4726122
vn 0.9396926 0.3420201 0
vn 0.8281235 0.3014124 -0.472612
vn 0.7660445 0.6427875 0
vn 0.6750924 0.5664699 -0.4726121
vn 0.5000001 0.8660253 0
vn 0.4406353 0.7632027 -0.472612
vn 0.1736482 0.9848077 0
vn 0.1530311 0.8678821 -0.4726121
vn 0.255204 0.4420263 -0.8599324
vn 0.08863144 0.5026538 -0.8599324
vn 0.3909951 0.3280839 -0.8599324
vn 0.4796264 0.1745697 -0.8599325
vn 0.5104077 0 -0.8599325
vn 0.4796265 -0.1745697 -0.8599325
vn 0.3909951 -0.3280837 -0.8599325
vn 0.2552041 -0.4420256 -0.8599327
vn 0.0886315 -0.5026535 -0.8599325
vn -0.08863107 -0.5026535 -0.8599326
vn -0.2552036 -0.4420262 -0.8599326
vn -0.3909949 -0.328084 -0.8599325
vn -0.4796264 -0.17457 -0.8599325
vn -0.5104079 0 -0.8599324
vn -0.4796265 0.1745699 -0.8599324
vn -0.3909951 0.328084 -0.8599324
vn -0.255204 0.4420263 -0.8599324
vn -0.0886314 0.5026538 -0.8599323
vn 0.08863144 0.5026538 -0.8599324
vn 0 0 1
vn 0 0 1
vn 0 0 1
vn 0 0 1
vn 0 0 1
vn 0 0 1
vn 0 0 1
vn 0 0 1
vn 0 0 1
vn 0 0 1
vn 0 0 1
vn 0 0 1
vn 0 0 1
vn 0 0 1
vn 0 0 1
vn 0 0 1
vn 0 0 1
vn 0 0 1
vn 0 0 -1
vn 0 0 -1
vn 0 0 -1
vn 0 0 -1
vn 0 0 -1
vn 0 0 -1
vn 0 0 -1
vn 0 0 -1
vn 0 0 -1
vn 0 0 -1
vn 0 0 -1
vn 0 0 -1
vn 0 0 -1
vn 0 0 -1
vn 0 0 -1
vn 0 0 -1
vn 0 0 -1
vn 0 0 -1

vt -26.17462 -4.793602
vt -10.72855 -8.521965
vt -26.17462 -8.521965
vt -3.804449 7.629395E-06
vt -12.32642 15.03578
vt 9.922161 7.629395E-06
vt 10.03187 15.02566
vt -10.72855 -8.521965
vt -26.17462 -4.793602
vt -26.17462 -8.521965
vt -3.804449 7.629395E-06
vt -12.32642 15.03578
vt 9.922161 7.629395E-06
vt 10.03187 15.02566
vt 10.03187 15.02566
vt 9.922161 7.629395E-06
vt 9.922161 7.629395E-06
vt 10.03187 15.02566
vt -12.32642 15.03578
vt 10.03187 15.02566
vt 10.03187 15.02566
vt -12.32642 15.03578
vt 9.922161 7.629395E-06
vt -3.804449 7.629395E-06
vt -3.804449 7.629395E-06
vt 9.922161 7.629395E-06
vt -26.17462 -4.793602
vt -12.32642 15.03578
vt -12.32642 15.03578
vt -26.17462 -4.793602
vt -26.17462 -8.521965
vt -26.17462 -8.521965
vt -3.804449 7.629395E-06
vt -10.72855 -8.521965
vt -10.72855 -8.521965
vt -3.804449 7.629395E-06
vt -10.72855 -8.521965
vt -26.17462 -8.521965
vt -26.17462 -8.521965
vt -10.72855 -8.521965
vt 0.75 0
vt 0.8055555 0.5
vt 0.8055555 0
vt 0.75 0.5
vt 0.861111 0.5
vt 0.861111 0
vt 0.9166667 0.5
vt 0.9166667 0
vt 0.9722222 0.5
vt 0.9722222 0
vt 1.027778 0.5
vt 1.027778 0
vt 0.6944444 0
vt 0.6944444 0.5
vt 0.6388888 0
vt 0.6388888 0.5
vt 0.5833333 0
vt 0.5833333 0.5
vt 0.5277777 0
vt 0.5277777 0.5
vt 0.4722221 0
vt 0.4722221 0.5
vt 0.4166666 0
vt 0.4166666 0.5
vt 0.3611111 0
vt 0.3611111 0.5
vt 0.3055555 0
vt 0.3055555 0.5
vt 0.25 0
vt 0.25 0.5
vt 0.1944444 0
vt 0.1944444 0.5
vt 0.1388889 0
vt 0.1388889 0.5
vt 0.08333335 0
vt 0.08333335 0.5
vt 0.02777781 0
vt 0.02777781 0.5
vt 0.08333335 1
vt 0.02777781 1
vt 0.1388889 1
vt 0.1944444 1
vt 0.25 1
vt 0.3055555 1
vt 0.3611111 1
vt 0.4166666 1
vt 0.4722221 1
vt 0.5277777 1
vt 0.5833333 1
vt 0.6388888 1
vt 0.6944444 1
vt 0.75 1
vt 0.8055555 1
vt 0.861111 1
vt 0.9166667 1
vt 0.9722222 1
vt 1.027778 1
vt 0.9924039 0.5868239
vt 0.9330126 0.2499999
vt 0.9924039 0.4131757
vt 0.67101 0.03015369
vt 0.8213937 0.1169777
vt 0.1786062 0.8830222
vt 0.06698731 0.2499999
vt 0.3289899 0.03015372
vt 0.4999999 2.980232E-08
vt 0.1786062 0.1169778
vt 0.007596105 0.5868241
vt 0.007596135 0.4131758
vt 0.06698728 0.7499999
vt 0.5 1
vt 0.3289899 0.9698462
vt 0.821394 0.883022
vt 0.6710104 0.9698461
vt 0.9330128 0.7499998
vt 0.06698728 0.7499999
vt 0.007596135 0.4131758
vt 0.007596105 0.5868241
vt 0.1786062 0.1169778
vt 0.06698731 0.2499999
vt 0.9330128 0.7499998
vt 0.8213937 0.1169777
vt 0.4999999 2.980232E-08
vt 0.3289899 0.03015372
vt 0.67101 0.03015369
vt 0.9924039 0.4131757
vt 0.9330126 0.2499999
vt 0.9924039 0.5868239
vt 0.6710104 0.9698461
vt 0.821394 0.883022
vt 0.3289899 0.9698462
vt 0.5 1
vt 0.1786062 0.8830222

g Line007
usemtl Line007
usemap Line007
f 1/1/1 3/3/3 2/2/2
f 1/1/1 2/2/2 4/4/4
f 1/1/1 4/4/4 5/5/5
f 4/4/4 6/6/6 5/5/5
f 6/6/6 7/7/7 5/5/5
f 8/8/8 10/10/10 9/9/9
f 8/8/8 9/9/9 11/11/11
f 9/9/9 12/12/12 11/11/11
f 12/12/12 13/13/13 11/11/11
f 12/12/12 14/14/14 13/13/13
f 15/15/15 17/17/17 16/16/16
f 16/16/16 18/18/18 15/15/15
f 19/19/19 21/21/21 20/20/20
f 20/20/20 22/22/22 19/19/19
f 23/23/23 25/25/25 24/24/24
f 24/24/24 26/26/26 23/23/23
f 27/27/27 29/29/29 28/28/28
f 28/28/28 30/30/30 27/27/27
f 31/31/31 27/27/27 30/30/30
f 30/30/30 32/32/32 31/31/31
f 33/33/33 35/35/35 34/34/34
f 34/34/34 36/36/36 33/33/33
f 37/37/37 39/39/39 38/38/38
f 38/38/38 40/40/40 37/37/37
g Line007_1
usemtl Line007_1
usemap Line007_1
f 41/41/41 43/43/43 42/42/42
f 42/42/42 44/44/44 41/41/41
f 45/45/45 42/42/42 43/43/43
f 43/43/43 46/46/46 45/45/45
f 47/47/47 45/45/45 46/46/46
f 46/46/46 48/48/48 47/47/47
f 49/49/49 47/47/47 48/48/48
f 48/48/48 50/50/50 49/49/49
f 51/51/51 49/49/49 50/50/50
f 50/50/50 52/52/52 51/51/51
f 53/53/53 41/41/41 44/44/44
f 44/44/44 54/54/54 53/53/53
f 55/55/55 53/53/53 54/54/54
f 54/54/54 56/56/56 55/55/55
f 57/57/57 55/55/55 56/56/56
f 56/56/56 58/58/58 57/57/57
f 59/59/59 57/57/57 58/58/58
f 58/58/58 60/60/60 59/59/59
f 61/61/61 59/59/59 60/60/60
f 60/60/60 62/62/62 61/61/61
f 63/63/63 61/61/61 62/62/62
f 62/62/62 64/64/64 63/63/63
f 65/65/65 63/63/63 64/64/64
f 64/64/64 66/66/66 65/65/65
f 67/67/67 65/65/65 66/66/66
f 66/66/66 68/68/68 67/67/67
f 69/69/69 67/67/67 68/68/68
f 68/68/68 70/70/70 69/69/69
f 71/71/71 69/69/69 70/70/70
f 70/70/70 72/72/72 71/71/71
f 73/73/73 71/71/71 72/72/72
f 72/72/72 74/74/74 73/73/73
f 75/75/75 73/73/73 74/74/74
f 74/74/74 76/76/76 75/75/75
f 77/77/77 75/75/75 76/76/76
f 76/76/76 78/78/78 77/77/77
f 78/78/78 76/76/76 79/79/79
f 79/79/79 80/80/80 78/78/78
f 76/76/76 74/74/74 81/81/81
f 81/81/81 79/79/79 76/76/76
f 74/74/74 72/72/72 82/82/82
f 82/82/82 81/81/81 74/74/74
f 72/72/72 70/70/70 83/83/83
f 83/83/83 82/82/82 72/72/72
f 70/70/70 68/68/68 84/84/84
f 84/84/84 83/83/83 70/70/70
f 85/85/85 84/84/84 68/68/68
f 68/68/68 66/66/66 85/85/85
f 86/86/86 85/85/85 66/66/66
f 66/66/66 64/64/64 86/86/86
f 87/87/87 86/86/86 64/64/64
f 64/64/64 62/62/62 87/87/87
f 88/88/88 87/87/87 62/62/62
f 62/62/62 60/60/60 88/88/88
f 89/89/89 88/88/88 60/60/60
f 60/60/60 58/58/58 89/89/89
f 90/90/90 89/89/89 58/58/58
f 58/58/58 56/56/56 90/90/90
f 91/91/91 90/90/90 56/56/56
f 56/56/56 54/54/54 91/91/91
f 92/92/92 91/91/91 54/54/54
f 54/54/54 44/44/44 92/92/92
f 93/93/93 92/92/92 44/44/44
f 44/44/44 42/42/42 93/93/93
f 94/94/94 93/93/93 42/42/42
f 42/42/42 45/45/45 94/94/94
f 95/95/95 94/94/94 45/45/45
f 45/45/45 47/47/47 95/95/95
f 96/96/96 95/95/95 47/47/47
f 47/47/47 49/49/49 96/96/96
f 97/97/97 96/96/96 49/49/49
f 49/49/49 51/51/51 97/97/97
f 98/98/98 100/100/100 99/99/99
f 98/98/98 99/99/99 101/101/101
f 99/99/99 102/102/102 101/101/101
f 98/98/98 101/101/101 103/103/103
f 101/101/101 104/104/104 103/103/103
f 101/101/101 105/105/105 104/104/104
f 101/101/101 106/106/106 105/105/105
f 105/105/105 107/107/107 104/104/104
f 104/104/104 108/108/108 103/103/103
f 104/104/104 109/109/109 108/108/108
f 108/108/108 110/110/110 103/103/103
f 98/98/98 103/103/103 111/111/111
f 103/103/103 112/112/112 111/111/111
f 98/98/98 111/111/111 113/113/113
f 111/111/111 114/114/114 113/113/113
f 98/98/98 113/113/113 115/115/115
f 116/116/116 118/118/118 117/117/117
f 116/116/116 117/117/117 119/119/119
f 117/117/117 120/120/120 119/119/119
f 116/116/116 119/119/119 121/121/121
f 119/119/119 122/122/122 121/121/121
f 119/119/119 123/123/123 122/122/122
f 119/119/119 124/124/124 123/123/123
f 123/123/123 125/125/125 122/122/122
f 122/122/122 126/126/126 121/121/121
f 122/122/122 127/127/127 126/126/126
f 126/126/126 128/128/128 121/121/121
f 116/116/116 121/121/121 129/129/129
f 121/121/121 130/130/130 129/129/129
f 116/116/116 129/129/129 131/131/131
f 129/129/129 132/132/132 131/131/131
f 116/116/116 131/131/131 133/133/133
